<?xml version="1.0" encoding="UTF-8"?>
<!DOCTYPE svg PUBLIC "-//W3C//DTD SVG 1.1//EN" "http://www.w3.org/Graphics/SVG/1.1/DTD/svg11.dtd">
<!-- Creator: CorelDRAW X7 -->
<svg xmlns="http://www.w3.org/2000/svg" xml:space="preserve" width="3.62486cm" height="3.62486cm" version="1.1" style="shape-rendering:geometricPrecision; text-rendering:geometricPrecision; image-rendering:optimizeQuality; fill-rule:evenodd; clip-rule:evenodd"
viewBox="0 0 552 552"
 xmlns:xlink="http://www.w3.org/1999/xlink">
 <defs>
  <style type="text/css">
   <![CDATA[
    .fil0 {fill:#D2D3D5}
    .fil1 {fill:black}
    .fil10 {fill:#007445}
    .fil9 {fill:#014083}
    .fil4 {fill:#0A689E}
    .fil7 {fill:#5D236D}
    .fil3 {fill:#913672}
    .fil6 {fill:#E10A15}
    .fil8 {fill:#FC7E41}
    .fil5 {fill:#FFF100}
    .fil2 {fill:white}
   ]]>
  </style>
 </defs>
 <rect class="fil0" x="170" y="989" width="3285" height="4251"/>
 <g id="Layer_x0020_1">
  <metadata id="CorelCorpID_0Corel-Layer"/>
  <g id="_2334775581952">
   <path class="fil1" d="M0 266l0 20c0,0 1,13 1,15 1,13 4,31 7,43 14,51 38,92 73,127 2,2 3,3 5,5 0,0 1,1 2,1 1,1 1,2 2,3l14 11c11,9 21,16 34,24 15,8 30,15 46,21 8,3 17,5 26,8 12,3 29,6 43,7 2,0 15,0 15,1l15 0c1,-1 14,-1 16,-1 32,-3 64,-12 93,-25 17,-8 33,-18 47,-28 6,-4 10,-7 14,-11l14 -12c12,-13 25,-26 34,-41 12,-16 16,-24 25,-42 11,-24 19,-52 23,-78 1,-5 1,-10 2,-15 0,-2 0,-16 1,-16l0 -14c-1,-1 -1,-14 -1,-16 -3,-33 -11,-63 -25,-93 -2,-6 -5,-11 -8,-16 -1,-2 -2,-4 -3,-6 -5,-8 -10,-15 -15,-23l-17 -21c0,0 0,0 -1,-1 -4,-4 -11,-12 -15,-16 -1,-1 -3,-2 -4,-4l-7 -6c0,0 -1,-1 -2,-2 -2,-1 -3,-2 -5,-4l-14 -10c-14,-11 -26,-17 -42,-25 -7,-4 -16,-7 -24,-10 -21,-7 -46,-13 -68,-15 -3,0 -15,-1 -16,-1l-19 0c-1,0 -13,1 -16,1 -22,2 -47,7 -68,15 -15,6 -31,13 -45,21 -12,8 -17,11 -28,19 -3,2 -8,6 -11,9 -3,2 -6,5 -9,8l-4 4c-27,26 -50,59 -64,94 -6,14 -8,21 -13,37 -2,8 -4,18 -5,28 -1,4 -1,9 -2,14 0,3 -1,15 -1,16z"/>
   <path class="fil2" d="M267 7c-31,1 -56,6 -84,16 -13,5 -34,14 -46,22 -13,8 -23,15 -34,25 -15,12 -29,27 -41,43 -2,1 -3,3 -4,4 -2,4 -4,7 -7,10 -30,47 -46,98 -44,158 0,27 7,59 16,84 3,8 6,16 10,24 7,14 10,18 18,32 6,8 12,16 19,24l3 4c2,2 7,7 8,9l15 15c4,3 17,13 21,16 47,35 109,54 168,52 41,-2 75,-11 108,-27 15,-7 38,-21 51,-32 3,-3 8,-7 11,-10 2,-1 5,-4 7,-6l13 -13c1,-1 2,-3 3,-4 3,-3 6,-6 8,-9 6,-7 9,-12 14,-20 9,-13 17,-28 24,-44 30,-70 28,-152 -6,-221 -3,-8 -7,-15 -11,-22 -4,-6 -10,-15 -14,-20 -2,-3 -5,-7 -7,-10l-6 -6c0,-1 0,-1 -1,-1l-9 -10c-1,-2 -3,-3 -4,-5 -2,-1 -3,-3 -4,-4l-14 -12c0,0 -1,-1 -2,-2l-12 -9c-9,-6 -16,-11 -25,-16l-11 -6c-5,-3 -12,-6 -18,-8 -4,-2 -7,-3 -12,-5 -31,-12 -67,-18 -101,-16z"/>
   <path class="fil3" d="M213 517l-8 -12c-17,-26 -36,-67 -45,-98 -8,-24 -12,-39 -16,-65 -5,-29 -7,-55 -7,-84 -1,1 -5,8 -5,9 -2,3 -4,6 -5,9 -24,41 -50,103 -52,149 0,3 0,3 3,6 1,1 2,2 3,4 2,2 4,5 6,7 1,1 1,1 2,2 3,3 11,11 14,14 1,1 1,1 2,2l4 3c11,10 22,17 34,24 2,2 6,4 9,5 6,4 12,7 19,10 6,3 13,6 20,8 4,2 19,6 22,7z"/>
   <path class="fil4" d="M361 387c2,0 18,-5 21,-6 27,-8 55,-18 80,-30 16,-8 38,-20 51,-31 2,-2 10,-8 11,-10 2,-2 3,-28 3,-32 0,-36 -9,-69 -23,-101 -1,-3 -2,-6 -4,-9 -1,-3 -8,-17 -10,-18 0,1 -1,7 -2,9 -3,20 -11,44 -18,62 -12,33 -28,63 -47,91 -9,13 -19,26 -29,39l-19 21 -14 15z"/>
   <path class="fil5" d="M150 61c1,1 8,2 9,2 7,1 22,5 28,7 25,7 43,14 66,25 9,4 22,11 30,16 5,3 10,5 14,8 5,3 16,10 21,14 7,5 13,9 20,14 5,4 14,11 19,16l4 4c1,0 1,1 2,1 4,4 13,12 18,17 1,1 4,5 6,6 -1,-4 -5,-18 -6,-22 -2,-7 -4,-14 -7,-21 -4,-14 -9,-27 -15,-40 -10,-24 -24,-50 -39,-70 -2,-3 -4,-5 -6,-8 -5,-4 -4,-3 -10,-4 -37,-5 -83,3 -117,17 -12,5 -22,9 -33,15l-4 3c0,0 0,0 0,0l0 0z"/>
   <path class="fil6" d="M61 402c0,0 4,-17 4,-19 1,-6 3,-12 5,-18 10,-35 23,-66 41,-97 15,-25 37,-57 57,-79l5 -6c1,-1 1,-1 2,-2l4 -4c2,-2 4,-4 6,-6 2,-2 4,-4 6,-6 -4,1 -18,4 -22,6 -34,9 -68,22 -98,39 -3,2 -6,3 -9,5 -3,2 -5,4 -8,5 -7,5 -14,10 -20,15 -1,1 -7,6 -7,6 -1,2 -1,5 -1,6 -5,47 5,95 25,137 2,3 8,16 10,18z"/>
   <path class="fil7" d="M402 490l-19 -4c-32,-7 -56,-16 -85,-29 -19,-9 -41,-22 -58,-34 -5,-3 -9,-6 -14,-9 -9,-7 -20,-16 -29,-23l-10 -9c-1,-1 -1,-1 -2,-2 -5,-4 -13,-12 -17,-16l-3 -3c0,3 11,38 12,42 5,16 9,25 15,40 7,17 18,39 28,54 2,3 6,10 9,13 3,4 8,11 12,14 2,2 28,3 32,3 33,0 62,-7 92,-18 6,-3 13,-6 19,-9 5,-2 9,-4 13,-7 1,0 4,-2 5,-3z"/>
   <path class="fil8" d="M35 213l12 -8c61,-40 134,-61 207,-67 6,0 13,0 20,-1 3,0 6,0 10,0 3,0 8,1 10,0l-18 -10c-6,-4 -12,-7 -19,-10 -13,-7 -26,-13 -40,-18 -14,-6 -27,-11 -43,-15 -14,-4 -33,-9 -49,-9 -2,0 -15,12 -16,13 -4,4 -7,7 -11,10 -1,2 -2,3 -4,4l-6 8c-14,16 -30,41 -38,61 -4,9 -9,21 -12,31 -1,3 -3,9 -3,11z"/>
   <path class="fil9" d="M270 414l-12 0c0,1 3,2 4,3 22,13 49,26 72,36 23,9 41,15 65,20 9,2 18,3 28,3 1,0 2,-1 2,-1 9,-7 13,-10 21,-18 6,-6 12,-12 17,-19 14,-18 25,-36 35,-58 3,-6 6,-13 8,-20 1,-3 7,-19 7,-22l-12 8c-49,32 -103,51 -161,61 -23,4 -49,7 -74,7z"/>
   <path class="fil10" d="M414 280l0 14c0,0 2,-3 3,-4l8 -14c16,-29 34,-68 42,-101 4,-14 9,-32 9,-48 0,-4 0,-3 -2,-6l-13 -15c-1,-2 -2,-3 -4,-4l-11 -10c-1,-2 -9,-8 -11,-10 -21,-16 -49,-32 -75,-41 -4,-1 -18,-6 -22,-6l8 12c3,4 5,8 8,12 15,26 28,54 37,83 14,41 23,95 23,138z"/>
   <path class="fil1" d="M316 300l3 -12 4 0 6 -15 -18 -1 0 -4 -16 0 -7 20 5 0c-1,3 -2,8 -4,10 -1,1 -2,2 -4,2 -3,0 -5,0 -7,0l8 -27 -5 0 -9 27 -16 0 8 -28 -6 0c-1,5 -3,10 -4,14 -1,2 -4,14 -5,14l-29 0 -6 18c2,0 15,0 18,0 8,0 8,0 14,-5 1,1 0,3 4,4 2,1 6,1 9,1 3,0 5,0 7,-1 3,-3 3,-5 6,-4 1,0 -1,2 3,4 6,2 13,-1 16,-6 2,-3 3,-7 5,-11 1,-3 3,-8 3,-12l15 0c-1,2 -2,4 -2,6 -2,4 -5,13 -6,17 0,3 0,5 2,6 2,1 5,1 7,1 4,-1 7,-5 9,-6 1,2 0,2 2,3 1,1 2,1 3,2 3,1 5,1 8,1 4,0 6,0 9,-1 3,-2 4,-5 6,-4 1,0 0,2 4,4 2,1 12,1 15,0 8,-3 16,-11 17,-23 -8,0 -7,0 -7,1 0,0 0,1 0,1 -2,5 -4,4 -7,4 -4,0 -8,0 -12,0l10 -33 -6 0c0,2 0,3 -1,4 -1,1 -1,2 -4,1 -3,0 -7,0 -10,0 -9,0 -12,-1 -15,6 -3,5 -6,20 -10,22 -1,0 -9,0 -10,0z"/>
   <path class="fil1" d="M199 243l-33 0 0 -4 -4 0 -5 18c1,1 1,1 2,1 2,1 0,2 6,2 4,0 27,-1 29,0l-18 58 6 0 9 -30 23 0c4,0 4,1 7,-1l40 -25c4,-2 3,-2 4,-7 1,-4 3,-8 4,-12l-63 0 3 -9 -6 0 -4 9z"/>
   <path class="fil2" d="M196 272c5,1 28,0 35,0 3,1 2,0 6,-2l13 -8c0,-1 1,-1 1,-1l1 -1c0,0 0,0 0,0l-52 0 -4 12z"/>
   <path class="fil2" d="M334 300l18 0c4,-1 6,-8 7,-12l-18 0c-4,1 -6,8 -7,12z"/>
  </g>
 </g>
</svg>
