<?xml version="1.0" encoding="UTF-8"?>
<!DOCTYPE svg PUBLIC "-//W3C//DTD SVG 1.1//EN" "http://www.w3.org/Graphics/SVG/1.1/DTD/svg11.dtd">
<!-- Creator: CorelDRAW X7 -->
<svg xmlns="http://www.w3.org/2000/svg" xml:space="preserve" width="13.194cm" height="2.71421cm" version="1.1" style="shape-rendering:geometricPrecision; text-rendering:geometricPrecision; image-rendering:optimizeQuality; fill-rule:evenodd; clip-rule:evenodd"
viewBox="0 0 16883 3473"
 xmlns:xlink="http://www.w3.org/1999/xlink">
 <defs>
  <style type="text/css">
   <![CDATA[
    .fil0 {fill:#D2D3D5}
    .fil3 {fill:black}
    .fil12 {fill:#007445}
    .fil11 {fill:#014083}
    .fil6 {fill:#0A689E}
    .fil2 {fill:#18BD86}
    .fil9 {fill:#5D236D}
    .fil5 {fill:#913672}
    .fil8 {fill:#E10A15}
    .fil10 {fill:#FC7E41}
    .fil7 {fill:#FFF100}
    .fil4 {fill:white}
    .fil1 {fill:white}
    .fil13 {fill:white;fill-rule:nonzero}
   ]]>
  </style>
 </defs>
 <rect class="fil0" x="-7217" y="-2162" width="27627" height="35753"/>
 <g id="Layer_x0020_1">
  <metadata id="CorelCorpID_0Corel-Layer"/>
  <path class="fil1" d="M6985 976c0,537 1016,412 1016,689 0,100 -132,180 -297,180l-216 0c-89,0 -191,-44 -245,-113l-279 217c112,108 355,175 524,175l216 0c343,0 622,-206 622,-459 0,-541 -1016,-442 -1016,-689 0,-99 124,-180 275,-180l217 0c80,0 171,44 221,113l281 -216c-108,-109 -340,-176 -502,-176l-217 0c-331,0 -600,206 -600,459zm1904 492l765 0 0 -279 -765 0 0 -393 830 0 151 -279 -1000 0c-169,0 -306,128 -306,284l0 1039c0,156 137,284 306,284l1000 0 -151 -279 -830 0 0 -377zm1542 -672l418 0c165,0 297,85 297,267l0 61c0,181 -132,266 -297,266l-223 0 -173 279 249 0 401 455 405 0 -436 -487c234,-69 399,-254 399,-513l0 -61c0,-338 -280,-546 -622,-546l-437 0c-169,0 -306,128 -306,284l0 1323 325 0 0 -1328zm2001 1003l-448 -1282 -346 0 472 1345c56,160 154,284 322,284 169,0 267,-124 323,-284l472 -1345 -346 0 -449 1282zm997 -1282l0 1607 325 0 0 -1607 -325 0zm890 611c0,-182 132,-332 297,-332l216 0c89,0 189,44 243,113l281 -216c-112,-109 -355,-176 -524,-176l-216 0c-343,0 -622,273 -622,611l0 385c0,338 279,611 622,611l216 0c169,0 412,-67 524,-175l-281 -217c-54,69 -154,113 -243,113l-216 0c-165,0 -297,-150 -297,-332l0 -385zm1583 340l765 0 0 -279 -765 0 0 -393 830 0 151 -279 -1000 0c-169,0 -306,128 -306,284l0 1039c0,156 137,284 306,284l1000 0 -151 -279 -830 0 0 -377z"/>
  <path class="fil2" d="M4515 517l0 1607 325 0 0 -1607 -325 0zm1312 1607l0 -1328 462 0 0 -279 -481 0c-169,0 -306,128 -306,284l0 1323 325 0zm-264 -1607l-494 0 0 279 321 0 173 -279z"/>
  <g id="_2334773414064">
   <path class="fil3" d="M0 1673l0 125c2,5 6,85 7,99 6,78 27,197 46,269 87,323 238,582 460,802 9,9 18,19 26,27 5,4 9,7 14,12 5,4 8,9 13,13l86 73c71,56 138,103 218,149 91,52 187,97 288,133 53,18 105,33 161,48 81,20 186,38 272,44 12,1 94,5 97,6l97 0c4,-1 86,-5 99,-6 203,-15 404,-73 584,-155 110,-50 209,-112 299,-177 33,-24 57,-46 88,-70l84 -75c79,-78 157,-164 219,-256 70,-103 98,-150 155,-268 71,-146 120,-323 144,-490 4,-31 8,-63 10,-95 1,-13 5,-97 6,-101l0 -87c-1,-5 -5,-85 -6,-99 -17,-210 -68,-395 -153,-585 -17,-37 -35,-70 -53,-105 -6,-12 -14,-23 -20,-34 -27,-52 -62,-98 -92,-144l-105 -132c-3,-3 -4,-5 -7,-8 -24,-25 -71,-79 -95,-100 -10,-8 -17,-16 -28,-25l-41 -38c-4,-4 -10,-8 -14,-12 -10,-8 -19,-16 -29,-24l-89 -68c-90,-65 -167,-105 -266,-155 -46,-23 -99,-43 -150,-61 -132,-49 -289,-83 -432,-96 -14,-1 -90,-5 -96,-7l-122 0c-7,3 -82,6 -98,7 -142,14 -297,46 -429,96 -98,36 -197,79 -285,132 -77,47 -105,68 -173,116 -22,15 -51,41 -73,58 -20,16 -37,33 -55,49l-28 25c-169,163 -314,371 -403,591 -36,90 -51,137 -78,234 -15,55 -26,118 -35,175 -4,31 -8,62 -11,94 -1,14 -5,91 -7,96z"/>
   <path class="fil4" d="M1682 43c-199,9 -351,38 -531,103 -79,28 -211,89 -287,137 -82,53 -144,93 -217,155 -95,80 -183,171 -258,271 -8,10 -15,19 -23,30 -15,21 -29,40 -43,62 -193,297 -290,616 -281,992 5,171 43,372 104,530 19,51 39,102 63,149 46,89 61,117 115,202 35,54 73,102 114,152l24 28c12,12 39,45 51,55l94 92c24,24 102,84 132,106 294,220 686,338 1053,324 258,-10 476,-70 680,-167 95,-45 241,-133 325,-205 20,-17 52,-41 71,-60 9,-9 28,-24 41,-38l79 -81c8,-9 17,-18 25,-28 16,-19 32,-37 48,-58 36,-44 58,-76 89,-122 55,-81 106,-176 149,-276 188,-444 175,-961 -35,-1395 -23,-48 -48,-94 -74,-137 -23,-38 -59,-94 -85,-128 -13,-16 -33,-45 -46,-59l-36 -44c-2,-3 -3,-3 -6,-6l-56 -63c-10,-10 -19,-19 -27,-26 -10,-10 -17,-19 -27,-28l-84 -74c-4,-4 -10,-8 -15,-12l-74 -58c-56,-41 -101,-68 -160,-103l-69 -37c-33,-16 -76,-39 -109,-51 -26,-10 -50,-20 -76,-30 -199,-73 -424,-112 -638,-102z"/>
   <path class="fil5" d="M1343 3254l-51 -76c-111,-164 -229,-421 -286,-612 -47,-156 -72,-247 -100,-415 -31,-180 -45,-343 -42,-527 -7,4 -30,48 -35,56 -11,19 -21,39 -32,58 -146,259 -312,646 -322,941 0,18 -1,14 13,32 7,9 13,17 20,25 14,17 28,33 42,49 4,5 7,6 11,11 18,22 67,69 90,90 4,4 7,6 12,11l24 21c66,58 137,103 211,150 18,11 38,22 57,32 37,22 80,41 121,60 40,19 85,37 128,52 25,9 117,40 139,42z"/>
   <path class="fil6" d="M2272 2435c14,-1 114,-30 135,-36 169,-48 345,-114 502,-189 102,-48 239,-126 325,-196 11,-9 58,-47 69,-60 11,-13 16,-178 16,-202 -2,-226 -56,-434 -142,-637 -9,-21 -19,-40 -28,-60 -8,-19 -52,-103 -61,-112 -4,7 -10,48 -12,59 -22,123 -70,279 -113,392 -79,204 -180,393 -298,569 -58,86 -120,168 -186,248l-117 134 -90 90z"/>
   <path class="fil7" d="M944 385c6,4 49,11 60,12 42,7 134,31 174,42 157,46 271,89 416,158 57,27 137,68 190,100 30,18 59,35 89,53 31,19 100,64 130,86 45,33 80,56 126,92 32,26 88,69 118,96l29 26c4,3 6,6 10,8 28,23 84,78 111,105 8,8 29,32 38,37 -4,-23 -29,-110 -37,-137 -13,-45 -27,-89 -41,-132 -29,-88 -60,-169 -94,-251 -62,-152 -152,-315 -249,-441 -13,-17 -26,-32 -39,-47 -27,-31 -25,-24 -59,-29 -236,-30 -524,19 -739,108 -77,32 -136,57 -206,97l-25 15c0,0 0,0 -1,0l-1 2z"/>
   <path class="fil8" d="M385 2531c1,-1 22,-105 24,-118 9,-39 19,-78 29,-115 63,-219 147,-416 258,-607 95,-163 234,-365 363,-504l33 -37c3,-4 5,-5 9,-9l27 -29c12,-12 23,-24 35,-36 12,-12 26,-23 37,-37 -24,4 -109,28 -137,36 -212,61 -424,143 -616,248 -18,10 -36,21 -54,32 -19,11 -35,22 -53,33 -44,26 -86,60 -125,91 -8,6 -42,36 -46,42 -4,7 -5,27 -6,37 -33,296 34,597 161,861 10,21 49,99 61,112z"/>
   <path class="fil9" d="M2530 3088l-120 -25c-197,-45 -352,-103 -533,-188 -121,-57 -258,-137 -366,-210 -29,-20 -57,-40 -86,-60 -58,-40 -125,-96 -182,-142l-67 -59c-4,-3 -7,-5 -10,-8 -33,-29 -82,-76 -110,-106l-18 -18c1,22 69,243 77,267 32,98 57,158 94,252 42,105 116,246 178,341 12,19 39,60 53,77 21,26 55,74 79,94 14,12 176,16 200,16 208,-3 389,-44 578,-117 42,-16 80,-34 120,-52 30,-14 57,-29 86,-45 4,-2 23,-13 27,-17z"/>
   <path class="fil10" d="M219 1343l79 -52c385,-251 842,-382 1300,-419 41,-3 83,-6 125,-7 21,0 43,-1 65,-1 18,-1 48,2 64,0l-114 -66c-38,-21 -78,-42 -119,-63 -80,-40 -163,-81 -250,-114 -88,-35 -174,-68 -270,-93 -94,-26 -211,-53 -315,-53 -12,0 -91,70 -100,79 -25,23 -44,44 -67,66 -9,8 -14,15 -22,23l-42 47c-90,105 -186,261 -241,388 -24,56 -56,134 -74,195 -4,16 -18,55 -19,70z"/>
   <path class="fil11" d="M1702 2609l-79 0c4,5 20,13 27,17 135,81 306,167 450,226 146,59 258,94 413,126 59,12 115,20 176,20 7,0 10,-4 14,-7 55,-45 79,-63 131,-115 38,-38 73,-76 106,-117 92,-115 157,-226 221,-364 19,-40 36,-84 52,-127 8,-23 40,-118 41,-138l-75 50c-310,200 -645,320 -1013,385 -147,25 -311,44 -464,44z"/>
   <path class="fil12" d="M2609 1766l0 86c1,-2 13,-22 16,-27l49 -86c104,-182 216,-431 270,-634 25,-93 52,-205 54,-308 0,-24 -1,-19 -12,-33l-83 -98c-8,-8 -15,-15 -22,-22l-69 -66c-12,-12 -60,-50 -74,-62 -129,-101 -310,-199 -469,-255 -25,-8 -118,-40 -139,-42l50 75c17,25 33,52 49,78 97,162 176,342 235,525 84,257 145,594 145,869z"/>
   <path class="fil3" d="M1988 1888l22 -72 27 0 32 -100 -110 0 0 -26 -103 0 -41 126 29 0c-2,19 -13,49 -23,60 -8,10 -11,12 -28,12 -14,0 -29,0 -42,0l52 -172 -35 0 -57 171 -101 1 54 -172 -36 0c-7,26 -20,60 -29,87 -3,9 -26,83 -30,85l-185 0 -37 112c10,2 96,1 113,1 50,0 53,2 87,-28 5,4 4,18 29,25 14,4 37,3 53,3 20,0 33,2 47,-8 20,-13 18,-25 34,-22 8,2 -1,15 23,25 37,15 80,-7 100,-38 11,-19 21,-43 29,-66 8,-23 18,-52 22,-76l90 0c-2,10 -8,24 -11,35 -10,28 -31,84 -34,109 -1,16 -1,29 12,35 11,6 29,7 43,6 23,-3 46,-31 57,-37 5,10 2,11 10,19 5,4 12,8 19,12 18,8 33,6 55,6 21,0 36,2 54,-7 20,-10 27,-26 39,-23 7,2 -2,14 24,26 12,6 76,6 92,-1 54,-22 102,-70 107,-143 -45,0 -39,-3 -42,5 -1,2 -1,6 -2,8 -8,26 -22,22 -39,22 -27,0 -53,0 -80,0l66 -205 -37 0c-4,8 -5,15 -10,22 -6,9 -8,11 -21,11 -22,0 -44,0 -66,0 -54,0 -75,-10 -96,34 -15,31 -38,128 -60,137 -6,2 -56,1 -66,1z"/>
   <path class="fil3" d="M1256 1531l-214 0 4 -29 -27 0 -30 118c5,4 6,3 11,5 16,9 2,10 36,10 25,0 176,-1 187,1l-117 364 39 1 60 -185 145 0c24,0 22,3 40,-8l252 -157c25,-11 21,-16 29,-44 6,-24 16,-52 20,-75l-395 -1 18 -58 -39 -1 -19 59z"/>
   <path class="fil4" d="M1237 1716c27,2 174,0 215,0 20,0 15,-1 39,-16l82 -53c3,-1 5,-3 8,-5l6 -4c2,-2 1,-1 3,-3l-328 0 -25 81z"/>
   <path class="fil4" d="M2104 1888l114 -1c21,-2 39,-48 43,-71l-113 0c-25,2 -39,50 -44,72z"/>
  </g>
  <path class="fil13" d="M6351 2996l265 0 0 -97 -265 0 0 -136 288 0 52 -97 -347 0c-59,0 -106,44 -106,98l0 361c0,55 47,99 106,99l347 0 -52 -97 -288 0 0 -131z"/>
  <path id="1" class="fil13" d="M6887 2662c-59,0 -114,45 -114,99l0 463 113 0 0 -463 157 368c23,54 53,99 112,99 58,0 113,-45 113,-99l0 -463 -113 0 0 463 -156 -368c-23,-54 -53,-99 -112,-99z"/>
  <path id="2" class="fil13" d="M7563 2666c-118,0 -214,95 -214,212l0 134c0,117 97,212 215,212l152 0c59,0 106,-44 106,-99l0 -179 -112 0 0 181 -146 0c-57,0 -103,-52 -103,-115l0 -134c0,-63 46,-115 102,-115l75 0c31,0 66,15 84,39l98 -75c-39,-38 -123,-61 -182,-61l-75 0z"/>
  <polygon id="3" class="fil13" points="7925,2666 7925,3224 8038,3224 8038,2666 "/>
  <path id="4" class="fil13" d="M8259 2662c-58,0 -113,45 -113,99l0 463 112 0 0 -463 157 368c23,54 53,99 112,99 59,0 113,-45 113,-99l0 -463 -112 0 0 463 -157 -368c-23,-54 -53,-99 -112,-99z"/>
  <path id="5" class="fil13" d="M8853 2996l265 0 0 -97 -265 0 0 -136 288 0 52 -97 -347 0c-59,0 -106,44 -106,98l0 361c0,55 47,99 106,99l347 0 -52 -97 -288 0 0 -131z"/>
  <path id="6" class="fil13" d="M9388 2763l145 0c57,0 103,29 103,92l0 22c0,63 -46,92 -103,92l-77 0 -61 97 87 0 139 158 141 0 -152 -169c82,-24 139,-88 139,-178l0 -22c0,-117 -97,-189 -216,-189l-152 0c-59,0 -106,44 -106,98l0 460 113 0 0 -461z"/>
  <polygon id="7" class="fil13" points="9847,2666 9847,3224 9959,3224 9959,2666 "/>
  <path id="8" class="fil13" d="M10180 2662c-58,0 -113,45 -113,99l0 463 113 0 0 -463 156 368c23,54 53,99 112,99 59,0 114,-45 114,-99l0 -463 -113 0 0 463 -157 -368c-23,-54 -53,-99 -112,-99z"/>
  <path id="9" class="fil13" d="M10856 2666c-118,0 -214,95 -214,212l0 134c0,117 97,212 216,212l152 0c59,0 106,-44 106,-99l0 -179 -113 0 0 181 -145 0c-57,0 -103,-52 -103,-115l0 -134c0,-63 45,-115 101,-115l76 0c30,0 65,15 84,39l98 -75c-39,-38 -124,-61 -182,-61l-76 0z"/>
  <path id="10" class="fil13" d="M11800 3012c0,63 -46,115 -103,115l-145 0 0 -364 145 0c57,0 103,52 103,115l0 134zm-361 -248l0 460 258 0c119,0 216,-95 216,-212l0 -134c0,-117 -97,-212 -216,-212l-152 0c-58,0 -106,44 -106,98z"/>
  <polygon id="11" class="fil13" points="12006,2666 12006,3224 12119,3224 12119,2666 "/>
  <path id="12" class="fil13" d="M12468 3111l-156 -445 -120 0 164 467c19,56 53,98 112,98 59,0 92,-42 112,-98l164 -467 -120 0 -156 445z"/>
  <polygon id="13" class="fil13" points="12814,2666 12814,3224 12927,3224 12927,2666 "/>
  <path id="14" class="fil13" d="M13016 2825c0,187 353,143 353,240 0,34 -46,62 -103,62l-76 0c-30,0 -66,-15 -84,-39l-97 75c39,38 123,61 181,61l76 0c118,0 216,-72 216,-159 0,-188 -353,-154 -353,-240 0,-34 43,-62 95,-62l76 0c27,0 59,15 76,39l98 -75c-38,-38 -118,-61 -174,-61l-76 0c-115,0 -208,71 -208,159z"/>
  <polygon id="15" class="fil13" points="13575,2666 13575,3224 13688,3224 13688,2666 "/>
  <path id="16" class="fil13" d="M14064 3231c118,0 215,-94 215,-212l0 -148c0,-118 -97,-213 -215,-213l-76 0c-119,0 -215,95 -215,213l0 148c0,118 96,212 215,212l76 0zm-76 -97c-57,0 -103,-51 -103,-115l0 -148c0,-64 46,-116 103,-116l76 0c57,0 103,52 103,116l0 148c0,64 -46,115 -103,115l-76 0z"/>
  <path id="17" class="fil13" d="M14482 2662c-58,0 -113,45 -113,99l0 463 113 0 0 -463 156 368c23,54 53,99 112,99 59,0 114,-45 114,-99l0 -463 -113 0 0 463 -157 -368c-23,-54 -53,-99 -112,-99z"/>
 </g>
</svg>
