<?xml version="1.0" encoding="UTF-8"?>
<!DOCTYPE svg PUBLIC "-//W3C//DTD SVG 1.1//EN" "http://www.w3.org/Graphics/SVG/1.1/DTD/svg11.dtd">
<!-- Creator: CorelDRAW X7 -->
<svg xmlns="http://www.w3.org/2000/svg" xml:space="preserve" width="21.59cm" height="19.8438cm" version="1.1" style="shape-rendering:geometricPrecision; text-rendering:geometricPrecision; image-rendering:optimizeQuality; fill-rule:evenodd; clip-rule:evenodd"
viewBox="0 0 21590 19844"
 xmlns:xlink="http://www.w3.org/1999/xlink">
 <defs>
  <style type="text/css">
   <![CDATA[
    .fil0 {fill:black}
    .fil1 {fill:#FFFF66}
   ]]>
  </style>
 </defs>
 <g id="Layer_x0020_1">
  <metadata id="CorelCorpID_0Corel-Layer"/>
  <g id="_2380530777440">
   <path class="fil0" d="M14106 4641l0 -3748c0,-493 -400,-893 -893,-893l-4836 0c-493,0 -893,400 -893,893l0 3747c-1338,1008 -2205,2609 -2205,4409 0,3041 2475,5515 5516,5515 3041,0 5516,-2474 5516,-5515 0,-1800 -867,-3401 -2205,-4408zm-4836 -2855l3050 0 0 1963c-485,-140 -996,-216 -1525,-216 -529,0 -1040,77 -1525,216l0 -1963 0 0zm1525 10992c-2057,0 -3730,-1673 -3730,-3729 0,-2057 1674,-3730 3730,-3730 2057,0 3730,1673 3730,3730 0,2056 -1673,3729 -3730,3729z"/>
   <path class="fil0" d="M4833 9049c0,-493 -399,-893 -893,-893l-3047 0c-493,0 -893,400 -893,893 0,493 400,893 893,893l3047 0c494,0 893,-400 893,-893z"/>
   <path class="fil0" d="M20697 8156l-3047 0c-494,0 -893,400 -893,893 0,493 399,893 893,893l3047 0c493,0 893,-400 893,-893 0,-493 -400,-893 -893,-893z"/>
   <path class="fil0" d="M5317 4833c174,175 403,262 631,262 229,0 457,-87 632,-262 348,-348 348,-914 0,-1263l-2155 -2154c-349,-349 -914,-349 -1263,0 -349,348 -349,914 0,1262l2155 2155z"/>
   <path class="fil0" d="M16273 13264c-349,-349 -914,-348 -1263,0 -348,349 -348,914 0,1263l2155 2155c175,174 403,261 632,261 228,0 457,-87 631,-261 349,-349 349,-914 0,-1263l-2155 -2155z"/>
   <path class="fil0" d="M5317 13264l-2155 2155c-349,349 -349,914 0,1263 174,175 403,262 631,262 229,0 457,-87 632,-262l2155 -2155c348,-348 348,-914 0,-1263 -349,-348 -914,-348 -1263,0z"/>
   <path class="fil0" d="M15642 5095c228,0 457,-87 631,-262l2155 -2154c349,-349 349,-915 0,-1263 -348,-349 -914,-349 -1263,-1l-2155 2155c-348,349 -348,915 0,1263 175,175 403,262 632,262z"/>
   <path class="fil0" d="M10795 15010c-493,0 -893,400 -893,893l0 3048c0,493 400,893 893,893 493,0 893,-400 893,-893l0 -3048c0,-493 -400,-893 -893,-893z"/>
  </g>
  <g id="_2380530831216">
  </g>
  <g id="_2380530831568">
  </g>
  <g id="_2380530830832">
  </g>
  <g id="_2380530831824">
  </g>
  <g id="_2380530831280">
  </g>
  <g id="_2380530520672">
  </g>
  <g id="_2380530520192">
  </g>
  <g id="_2380530520928">
  </g>
  <g id="_2380530520128">
  </g>
  <g id="_2380528917104">
  </g>
  <g id="_2380528917360">
  </g>
  <g id="_2380528916816">
  </g>
  <g id="_2380529530704">
  </g>
  <g id="_2380529530384">
  </g>
  <g id="_2380529531664">
  </g>
  <path class="fil1" d="M7065 9049c0,2056 1673,3729 3730,3729 2057,0 3730,-1673 3730,-3729 0,-2057 -1673,-3730 -3730,-3730 -2056,0 -3730,1673 -3730,3730z"/>
 </g>
</svg>
