<?xml version="1.0" encoding="UTF-8"?>
<!DOCTYPE svg PUBLIC "-//W3C//DTD SVG 1.1//EN" "http://www.w3.org/Graphics/SVG/1.1/DTD/svg11.dtd">
<!-- Creator: CorelDRAW X7 -->
<svg xmlns="http://www.w3.org/2000/svg" xml:space="preserve" width="19.8646cm" height="17.9854cm" version="1.1" style="shape-rendering:geometricPrecision; text-rendering:geometricPrecision; image-rendering:optimizeQuality; fill-rule:evenodd; clip-rule:evenodd"
viewBox="0 0 19097 17291"
 xmlns:xlink="http://www.w3.org/1999/xlink">
 <defs>
  <style type="text/css">
   <![CDATA[
    .str0 {stroke:black;stroke-width:7.32564}
    .fil1 {fill:#FFFF66}
    .fil0 {fill:white}
   ]]>
  </style>
 </defs>
 <g id="Layer_x0020_1">
  <metadata id="CorelCorpID_0Corel-Layer"/>
  <g id="_2380525885168">
  </g>
  <g id="_2380525885200">
  </g>
  <g id="_2380525885552">
  </g>
  <g id="_2380525884080">
  </g>
  <g id="_2380525884848">
  </g>
  <g id="_2380525885296">
  </g>
  <g id="_2380525884368">
  </g>
  <g id="_2380525887728">
  </g>
  <g id="_2380525886224">
  </g>
  <g id="_2380525886000">
  </g>
  <g id="_2380525887696">
  </g>
  <g id="_2380525886672">
  </g>
  <g id="_2380525886992">
  </g>
  <g id="_2380525886064">
  </g>
  <g id="_2380525887824">
  </g>
  <g id="Layer_1_1_">
  </g>
  <path class="fil0 str0" d="M12348 16469c845,-395 1643,-928 2306,-1596 -3605,386 -7218,-1489 -8827,-4934 -1625,-3482 -749,-7471 1885,-9935 -884,99 -1815,328 -2704,743 -4335,2024 -6215,7197 -4191,11531 2041,4371 7204,6211 11531,4191z"/>
  <polygon class="fil1" points="12033,4813 12865,3700 14245,3781 13455,2646 13957,1383 12623,1746 11558,901 11514,2264 10379,3053 11670,3480 "/>
  <polygon class="fil1" points="17569,7356 18151,6610 19097,6642 18571,5841 18892,4976 17989,5245 17239,4656 17217,5605 16423,6128 17293,6438 "/>
  <polygon class="fil1" points="13330,11921 13559,12852 14185,12086 15131,12118 14608,11324 14949,10387 13998,10670 13235,10051 13190,11047 12400,11577 "/>
 </g>
</svg>
