<?xml version="1.0" encoding="UTF-8"?>
<!DOCTYPE svg PUBLIC "-//W3C//DTD SVG 1.1//EN" "http://www.w3.org/Graphics/SVG/1.1/DTD/svg11.dtd">
<!-- Creator: CorelDRAW X7 -->
<svg xmlns="http://www.w3.org/2000/svg" xml:space="preserve" width="9.13245cm" height="1.87869cm" version="1.1" style="shape-rendering:geometricPrecision; text-rendering:geometricPrecision; image-rendering:optimizeQuality; fill-rule:evenodd; clip-rule:evenodd"
viewBox="0 0 9367 1927"
 xmlns:xlink="http://www.w3.org/1999/xlink">
 <defs>
  <style type="text/css">
   <![CDATA[
    .fil0 {fill:#D2D3D5}
    .fil3 {fill:black}
    .fil1 {fill:black}
    .fil12 {fill:#007445}
    .fil11 {fill:#014083}
    .fil6 {fill:#0A689E}
    .fil2 {fill:#18BD86}
    .fil9 {fill:#5D236D}
    .fil5 {fill:#913672}
    .fil8 {fill:#E10A15}
    .fil10 {fill:#FC7E41}
    .fil7 {fill:#FFF100}
    .fil4 {fill:white}
    .fil13 {fill:black;fill-rule:nonzero}
   ]]>
  </style>
 </defs>
 <rect class="fil0" x="-6505" y="3825" width="22143" height="28656"/>
 <g id="Layer_x0020_1">
  <metadata id="CorelCorpID_0Corel-Layer"/>
  <path class="fil1" d="M3875 542c0,298 564,228 564,382 0,55 -73,99 -165,99l-120 0c-49,0 -106,-24 -136,-62l-155 120c63,60 197,97 291,97l120 0c190,0 345,-114 345,-254 0,-301 -563,-245 -563,-382 0,-56 68,-100 152,-100l120 0c45,0 95,24 123,62l156 -120c-60,-60 -189,-97 -279,-97l-120 0c-184,0 -333,114 -333,255zm1056 272l425 0 0 -155 -425 0 0 -217 461 0 84 -155 -555 0c-94,0 -170,71 -170,157l0 577c0,87 76,157 170,157l555 0 -84 -155 -461 0 0 -209zm856 -372l232 0c91,0 165,47 165,148l0 33c0,101 -74,148 -165,148l-124 0 -96 155 138 0 223 252 224 0 -241 -270c129,-38 221,-140 221,-285l0 -33c0,-188 -155,-303 -345,-303l-243 0c-94,0 -169,71 -169,157l0 734 180 0 0 -736zm1110 556l-248 -711 -193 0 262 746c31,89 86,157 179,157 94,0 148,-68 179,-157l262 -746 -192 0 -249 711zm553 -711l0 891 180 0 0 -891 -180 0zm494 339c0,-101 73,-184 164,-184l121 0c49,0 104,24 134,62l156 -120c-62,-60 -197,-97 -290,-97l-121 0c-189,0 -344,151 -344,339l0 214c0,187 155,338 344,338l121 0c93,0 228,-37 290,-97l-156 -120c-30,38 -85,62 -134,62l-121 0c-91,0 -164,-82 -164,-183l0 -214zm878 188l424 0 0 -155 -424 0 0 -217 460 0 85 -155 -556 0c-93,0 -169,71 -169,157l0 577c0,87 76,157 169,157l556 0 -85 -155 -460 0 0 -209z"/>
  <path class="fil2" d="M2505 287l0 891 180 0 0 -891 -180 0zm728 891l0 -736 256 0 0 -155 -267 0c-94,0 -169,71 -169,157l0 734 180 0zm-147 -891l-274 0 0 155 178 0 96 -155z"/>
  <g id="_1362367191808">
   <path class="fil3" d="M0 928l0 70c1,2 4,47 4,54 3,44 15,110 26,150 48,179 131,323 254,445 5,5 10,10 15,14 3,3 5,5 8,7 2,3 4,5 7,8l48 40c39,31 76,57 121,82 50,29 104,55 159,74 30,10 59,19 90,27 45,11 103,21 150,24 7,1 53,3 55,4l53 0c2,-1 48,-3 55,-4 113,-8 224,-40 324,-86 61,-27 116,-62 166,-98 19,-13 32,-25 49,-39l46 -41c44,-43 88,-91 122,-142 39,-57 54,-83 86,-149 39,-81 66,-179 80,-271 2,-18 4,-36 5,-53 1,-8 3,-54 4,-56l0 -49c-1,-2 -3,-47 -3,-55 -10,-116 -39,-219 -86,-324 -9,-21 -19,-39 -29,-59 -3,-6 -7,-12 -11,-18 -15,-29 -35,-55 -51,-80l-58 -73c-2,-2 -2,-3 -4,-5 -14,-14 -39,-44 -53,-55 -5,-5 -9,-9 -15,-14l-23 -21c-3,-2 -6,-5 -8,-7 -6,-4 -10,-9 -16,-13l-50 -38c-49,-36 -92,-58 -147,-86 -26,-13 -55,-24 -83,-34 -73,-27 -161,-46 -240,-53 -8,-1 -50,-3 -53,-4l-68 0c-4,2 -45,3 -54,4 -79,8 -165,26 -238,53 -54,20 -110,44 -158,74 -43,25 -58,37 -96,64 -13,8 -28,22 -41,32 -11,9 -20,18 -30,27l-15 14c-94,90 -175,206 -224,328 -20,50 -29,76 -43,130 -9,30 -15,65 -20,97 -2,17 -4,34 -6,52 -1,8 -3,50 -4,53z"/>
   <path class="fil4" d="M933 24c-110,5 -194,21 -295,57 -44,16 -117,49 -159,76 -45,29 -79,52 -120,86 -53,45 -102,95 -143,150 -5,6 -8,11 -13,17 -8,11 -16,22 -24,35 -107,164 -161,341 -155,549 2,96 23,207 57,295 11,28 22,56 35,82 25,50 34,65 64,112 19,30 40,57 63,85l13 15c7,7 22,25 28,31l53 51c13,13 56,46 73,59 163,122 380,187 584,179 144,-5 264,-38 377,-92 53,-25 134,-74 181,-114 11,-10 29,-23 39,-33 5,-5 15,-13 23,-22l44 -44c4,-5 9,-10 14,-16 9,-11 17,-20 26,-32 20,-25 32,-42 50,-68 30,-45 58,-97 82,-153 105,-246 97,-533 -19,-773 -13,-27 -27,-53 -41,-77 -13,-21 -33,-52 -47,-70 -8,-10 -19,-26 -26,-34l-20 -24c-1,-1 -2,-2 -3,-3l-32 -35c-5,-6 -10,-11 -14,-15 -6,-5 -10,-10 -15,-15l-47 -41c-2,-2 -5,-5 -8,-7l-41 -32c-31,-23 -56,-38 -89,-57l-38 -21c-18,-9 -42,-21 -61,-28 -14,-6 -27,-11 -42,-17 -110,-40 -235,-62 -354,-56z"/>
   <path class="fil5" d="M745 1805l-28 -42c-62,-91 -127,-234 -159,-340 -26,-86 -40,-137 -56,-230 -16,-99 -24,-190 -22,-292 -5,2 -17,27 -20,31 -6,11 -12,21 -18,32 -81,144 -173,359 -178,522 -1,10 -1,8 7,18 4,5 7,9 11,14 8,9 15,18 23,27 2,3 4,4 6,6 10,12 38,38 50,50 3,3 4,3 7,6l13 12c37,32 76,57 117,83 10,6 21,12 32,18 21,12 44,23 67,33 22,11 47,20 71,29 14,5 65,22 77,23z"/>
   <path class="fil6" d="M1260 1351c8,-1 63,-17 75,-20 94,-26 192,-63 279,-105 56,-26 132,-70 180,-108 6,-6 32,-27 38,-34 7,-7 9,-98 9,-112 -1,-125 -31,-241 -79,-353 -5,-12 -10,-22 -15,-34 -5,-10 -29,-57 -34,-62 -2,4 -5,27 -6,33 -13,68 -39,155 -63,217 -44,114 -100,219 -166,316 -32,47 -66,93 -102,138l-66 74 -50 50z"/>
   <path class="fil7" d="M524 214c3,2 27,6 33,7 23,3 75,16 97,23 87,25 150,49 231,87 31,15 76,38 105,56 16,10 33,19 49,29 17,11 56,36 72,48 25,18 44,31 70,51 18,14 49,38 65,53l17 14c2,2 3,4 5,5 16,13 47,43 62,58 4,4 16,18 21,21 -2,-13 -16,-61 -21,-76 -7,-26 -14,-49 -22,-73 -16,-49 -34,-94 -52,-140 -35,-84 -85,-175 -139,-245 -7,-9 -14,-17 -21,-25 -15,-18 -14,-14 -33,-16 -131,-17 -291,10 -410,59 -43,18 -75,32 -114,54l-14 8c0,0 0,1 0,1l-1 1z"/>
   <path class="fil8" d="M214 1404c0,-1 12,-58 13,-65 5,-22 10,-43 16,-64 35,-122 82,-231 143,-337 53,-90 130,-202 201,-279l19 -21c2,-2 3,-3 5,-5l15 -16c6,-7 12,-13 19,-20 7,-7 15,-13 21,-21 -14,2 -60,16 -76,21 -118,33 -236,79 -342,137 -10,6 -20,12 -30,18 -11,6 -20,12 -30,18 -24,15 -47,33 -69,50 -4,4 -23,21 -25,24 -3,4 -3,15 -3,20 -19,165 18,332 89,478 5,12 27,55 34,62z"/>
   <path class="fil9" d="M1403 1713l-66 -13c-109,-26 -195,-58 -296,-105 -67,-32 -143,-76 -203,-117 -16,-11 -31,-22 -47,-33 -32,-22 -70,-53 -101,-79l-38 -32c-2,-2 -3,-3 -5,-5 -18,-16 -45,-42 -61,-59l-10 -10c0,13 38,135 42,148 19,55 32,88 53,140 23,59 64,137 98,190 7,10 22,33 30,42 11,15 31,41 44,52 7,7 97,9 111,9 115,-1 215,-24 320,-64 24,-9 45,-19 67,-29 17,-8 32,-16 47,-25 3,-2 14,-7 15,-10z"/>
   <path class="fil10" d="M122 745l43 -29c214,-139 468,-211 721,-232 23,-2 47,-3 70,-4 12,0 24,-1 36,-1 10,0 26,2 36,0l-64 -36c-21,-12 -43,-24 -66,-35 -44,-22 -90,-45 -138,-64 -49,-19 -97,-37 -150,-51 -52,-14 -117,-29 -175,-29 -7,0 -50,39 -55,43 -14,13 -25,25 -38,37 -5,4 -7,8 -12,13l-23 26c-50,58 -103,145 -134,215 -13,31 -31,74 -41,108 -2,9 -10,31 -10,39z"/>
   <path class="fil11" d="M944 1448l-44 -1c3,3 12,8 15,10 75,45 170,92 250,125 81,33 143,52 229,70 33,7 64,11 98,11 4,0 5,-2 8,-4 30,-25 43,-34 72,-63 21,-21 41,-42 59,-66 51,-63 87,-125 123,-201 10,-22 20,-47 28,-71 5,-12 23,-65 23,-76l-41 28c-172,110 -358,177 -562,213 -82,14 -173,25 -258,25z"/>
   <path class="fil12" d="M1448 980l-1 48c1,-2 8,-13 9,-15l28 -48c57,-101 119,-239 149,-352 14,-52 29,-114 30,-171 0,-13 0,-10 -6,-18l-46 -54c-5,-5 -9,-9 -13,-13l-38 -36c-7,-7 -33,-28 -41,-34 -71,-57 -172,-111 -260,-142 -14,-5 -66,-23 -77,-23l28 41c9,14 18,29 27,44 53,89 97,189 130,291 46,142 81,329 81,482z"/>
   <path class="fil3" d="M1103 1047l12 -39 15 -1 18 -55 -61 0 0 -15 -57 0 -23 70 16 0c-1,11 -7,28 -13,34 -4,5 -6,6 -16,6 -7,0 -15,0 -23,0l29 -95 -19 0 -32 95 -56 0 30 -95 -20 0c-4,14 -11,33 -16,48 -2,5 -14,46 -17,47l-102 0 -21 63c6,1 53,0 63,0 28,0 30,1 48,-16 3,3 3,11 16,15 8,2 21,1 30,1 11,0 18,1 26,-4 11,-8 10,-14 19,-12 4,0 -1,8 13,13 20,9 44,-3 55,-21 6,-10 12,-23 16,-36 4,-13 10,-29 12,-42l50 -1c-1,6 -4,14 -6,20 -5,16 -17,47 -19,61 -1,8 0,15 7,19 6,3 16,4 23,3 13,-1 26,-17 32,-20 3,5 1,6 6,10 3,2 7,5 11,7 9,4 18,3 30,3 12,0 20,1 30,-4 11,-6 15,-14 22,-13 4,1 -2,8 13,15 7,3 42,3 51,0 30,-13 56,-40 59,-80 -25,0 -21,-2 -23,3 0,1 -1,3 -1,4 -5,15 -12,12 -22,12 -15,0 -29,0 -44,0l36 -113 -20 0c-2,4 -3,8 -6,12 -3,5 -4,6 -12,6 -12,0 -24,0 -36,0 -30,0 -42,-5 -53,19 -9,17 -21,71 -33,76 -4,1 -31,0 -37,0z"/>
   <path class="fil3" d="M697 850l-119 0 2 -17 -15 0 -16 66c3,2 3,1 6,3 9,4 1,5 20,5 14,0 97,-1 104,1l-66 202 22 0 34 -103 80 0c13,0 12,2 22,-4l140 -87c14,-6 12,-9 16,-24 4,-14 9,-29 11,-42l-219 0 10 -33 -22 0 -10 33z"/>
   <path class="fil4" d="M686 952c15,1 97,0 120,0 11,0 8,-1 21,-9l46 -29c1,-1 3,-2 4,-3l3 -2c1,-1 1,-1 2,-2l-182 0 -14 45z"/>
   <path class="fil4" d="M1167 1047l64 0c11,-1 21,-27 23,-39l-62 -1c-14,1 -22,28 -25,40z"/>
  </g>
  <path class="fil13" d="M3523 1662l148 0 0 -54 -148 0 0 -75 160 0 29 -54 -192 0c-33,0 -59,25 -59,55l0 200c0,30 26,55 59,55l192 0 -29 -54 -160 0 0 -73z"/>
  <path id="1" class="fil13" d="M3821 1477c-33,0 -63,25 -63,55l0 257 62 0 0 -257 87 204c13,30 30,55 62,55 33,0 63,-25 63,-55l0 -257 -62 0 0 257 -87 -204c-13,-30 -30,-55 -62,-55z"/>
  <path id="2" class="fil13" d="M4196 1479c-66,0 -119,53 -119,118l0 74c0,65 54,118 120,118l84 0c32,0 59,-25 59,-55l0 -100 -63 0 0 101 -80 0c-32,0 -58,-29 -58,-64l0 -74c0,-35 25,-64 57,-64l41 0c18,0 37,8 47,22l54 -42c-21,-21 -68,-34 -101,-34l-41 0z"/>
  <polygon id="3" class="fil13" points="4397,1479 4397,1789 4459,1789 4459,1479 "/>
  <path id="4" class="fil13" d="M4582 1477c-33,0 -63,25 -63,55l0 257 63 0 0 -257 86 204c13,30 30,55 63,55 32,0 63,-25 63,-55l0 -257 -63 0 0 257 -87 -204c-13,-30 -29,-55 -62,-55z"/>
  <path id="5" class="fil13" d="M4911 1662l147 0 0 -54 -147 0 0 -75 160 0 29 -54 -193 0c-32,0 -58,25 -58,55l0 200c0,30 26,55 58,55l193 0 -29 -54 -160 0 0 -73z"/>
  <path id="6" class="fil13" d="M5205 1662l147 0 0 -54 -147 0 0 -75 160 0 29 -54 -193 0c-32,0 -58,25 -58,55l0 200c0,30 26,55 58,55l193 0 -29 -54 -160 0 0 -73z"/>
  <path id="7" class="fil13" d="M5502 1533l81 0c31,0 57,16 57,51l0 12c0,35 -26,51 -57,51l-43 0 -34 54 48 0 78 88 78 0 -84 -94c45,-14 76,-49 76,-99l0 -12c0,-65 -53,-105 -119,-105l-85 0c-32,0 -58,25 -58,55l0 255 62 0 0 -256z"/>
  <polygon id="8" class="fil13" points="5757,1479 5757,1789 5819,1789 5819,1479 "/>
  <path id="9" class="fil13" d="M5942 1477c-33,0 -63,25 -63,55l0 257 63 0 0 -257 86 204c13,30 30,55 62,55 33,0 63,-25 63,-55l0 -257 -62 0 0 257 -87 -204c-13,-30 -30,-55 -62,-55z"/>
  <path id="10" class="fil13" d="M6317 1479c-66,0 -119,53 -119,118l0 74c0,65 54,118 120,118l84 0c33,0 59,-25 59,-55l0 -100 -63 0 0 101 -80 0c-32,0 -57,-29 -57,-64l0 -74c0,-35 25,-64 56,-64l42 0c17,0 36,8 46,22l55 -42c-22,-21 -69,-34 -101,-34l-42 0z"/>
  <path id="11" class="fil13" d="M6840 1671c0,35 -25,64 -57,64l-80 0 0 -202 80 0c32,0 57,29 57,64l0 74zm-200 -137l0 255 143 0c66,0 120,-53 120,-118l0 -74c0,-65 -54,-118 -120,-118l-84 0c-32,0 -59,25 -59,55z"/>
  <polygon id="12" class="fil13" points="6955,1479 6955,1789 7017,1789 7017,1479 "/>
  <path id="13" class="fil13" d="M7211 1726l-86 -247 -67 0 91 259c11,31 29,55 62,55 32,0 51,-24 62,-55l91 -259 -67 0 -86 247z"/>
  <polygon id="14" class="fil13" points="7403,1479 7403,1789 7465,1789 7465,1479 "/>
  <path id="15" class="fil13" d="M7515 1567c0,104 196,80 196,133 0,19 -26,35 -57,35l-42 0c-17,0 -37,-9 -47,-22l-54 42c22,21 68,34 101,34l42 0c65,0 119,-40 119,-89 0,-104 -195,-85 -195,-133 0,-19 23,-34 53,-34l41 0c16,0 33,8 43,22l54 -42c-21,-21 -65,-34 -97,-34l-41 0c-64,0 -116,40 -116,88z"/>
  <polygon id="16" class="fil13" points="7825,1479 7825,1789 7888,1789 7888,1479 "/>
  <path id="17" class="fil13" d="M8096 1793c66,0 120,-53 120,-118l0 -82c0,-66 -54,-118 -120,-118l-42 0c-66,0 -119,52 -119,118l0 82c0,65 53,118 119,118l42 0zm-42 -54c-31,0 -57,-29 -57,-64l0 -82c0,-36 26,-64 57,-64l42 0c32,0 57,28 57,64l0 82c0,35 -25,64 -57,64l-42 0z"/>
  <path id="18" class="fil13" d="M8328 1477c-32,0 -63,25 -63,55l0 257 63 0 0 -257 87 204c13,30 29,55 62,55 33,0 63,-25 63,-55l0 -257 -63 0 0 257 -86 -204c-13,-30 -30,-55 -63,-55z"/>
 </g>
</svg>
