<?xml version="1.0" encoding="UTF-8"?>
<!DOCTYPE svg PUBLIC "-//W3C//DTD SVG 1.1//EN" "http://www.w3.org/Graphics/SVG/1.1/DTD/svg11.dtd">
<!-- Creator: CorelDRAW X7 -->
<svg xmlns="http://www.w3.org/2000/svg" xml:space="preserve" width="13.194cm" height="2.71421cm" version="1.1" style="shape-rendering:geometricPrecision; text-rendering:geometricPrecision; image-rendering:optimizeQuality; fill-rule:evenodd; clip-rule:evenodd"
viewBox="0 0 16176 3328"
 xmlns:xlink="http://www.w3.org/1999/xlink">
 <defs>
  <style type="text/css">
   <![CDATA[
    .fil0 {fill:#D2D3D5}
    .fil3 {fill:black}
    .fil12 {fill:#007445}
    .fil11 {fill:#014083}
    .fil6 {fill:#0A689E}
    .fil2 {fill:#18BD86}
    .fil9 {fill:#5D236D}
    .fil5 {fill:#913672}
    .fil8 {fill:#E10A15}
    .fil10 {fill:#FC7E41}
    .fil7 {fill:#FFF100}
    .fil4 {fill:white}
    .fil1 {fill:white}
    .fil13 {fill:white;fill-rule:nonzero}
   ]]>
  </style>
 </defs>
 <rect class="fil0" x="-6638" y="6589" width="26469" height="34254"/>
 <g id="Layer_x0020_1">
  <metadata id="CorelCorpID_0Corel-Layer"/>
  <path class="fil1" d="M6693 935c0,515 973,395 973,660 0,96 -127,172 -285,172l-207 0c-85,0 -183,-41 -235,-107l-267 207c108,104 340,168 502,168l207 0c328,0 596,-197 596,-440 0,-519 -973,-423 -973,-660 0,-95 118,-172 263,-172l208 0c77,0 164,42 211,108l270 -207c-104,-104 -326,-169 -481,-169l-208 0c-317,0 -574,198 -574,440zm1824 471l732 0 0 -267 -732 0 0 -376 794 0 146 -268 -959 0c-162,0 -293,123 -293,272l0 996c0,150 131,272 293,272l959 0 -146 -268 -794 0 0 -361zm1477 -643l401 0c157,0 284,81 284,255l0 58c0,175 -127,256 -284,256l-214 0 -166 267 238 0 384 436 388 0 -417 -467c224,-66 382,-243 382,-492l0 -58c0,-323 -268,-523 -595,-523l-420 0c-162,0 -292,123 -292,272l0 1268 311 0 0 -1272zm1917 961l-429 -1229 -332 0 452 1289c54,154 148,272 309,272 162,0 256,-118 310,-272l452 -1289 -332 0 -430 1229zm955 -1229l0 1540 311 0 0 -1540 -311 0zm853 586c0,-175 126,-318 284,-318l208 0c85,0 180,42 232,108l270 -207c-108,-104 -340,-169 -502,-169l-208 0c-328,0 -595,262 -595,586l0 369c0,324 267,585 595,585l208 0c162,0 394,-64 502,-168l-270 -207c-52,66 -147,107 -232,107l-208 0c-158,0 -284,-143 -284,-317l0 -369zm1517 325l732 0 0 -267 -732 0 0 -376 795 0 145 -268 -959 0c-162,0 -293,123 -293,272l0 996c0,150 131,272 293,272l959 0 -145 -268 -795 0 0 -361z"/>
  <path class="fil2" d="M4326 495l0 1540 311 0 0 -1540 -311 0zm1257 1540l0 -1272 442 0 0 -268 -461 0c-161,0 -292,123 -292,272l0 1268 311 0zm-253 -1540l-473 0 0 268 307 0 166 -268z"/>
  <g id="_2334769064544">
   <path class="fil3" d="M0 1603l0 120c2,4 6,81 7,94 6,75 26,189 44,258 83,310 228,558 440,769 9,9 17,18 25,25 5,5 9,7 14,12 4,4 8,9 13,13l82 69c68,54 132,99 208,143 87,50 180,94 276,127 51,18 101,33 155,46 77,20 178,37 260,43 12,1 90,4 94,6l92 0c4,-2 83,-6 95,-6 195,-15 387,-70 560,-149 105,-48 199,-107 286,-169 32,-24 55,-45 85,-67l80 -72c75,-75 150,-157 210,-245 66,-99 93,-144 148,-257 68,-141 115,-310 138,-469 4,-30 7,-61 10,-92 1,-13 4,-93 6,-96l0 -84c-2,-4 -5,-82 -6,-95 -16,-201 -66,-379 -147,-560 -16,-36 -33,-67 -51,-101 -6,-11 -13,-22 -18,-32 -27,-50 -61,-94 -89,-138l-101 -127c-3,-3 -3,-4 -6,-7 -24,-25 -68,-76 -91,-96 -10,-8 -17,-16 -27,-24l-40 -36c-4,-4 -9,-9 -13,-12 -10,-8 -18,-15 -28,-23l-85 -65c-86,-62 -160,-101 -255,-148 -44,-23 -95,-42 -143,-60 -127,-47 -278,-79 -414,-91 -14,-1 -87,-5 -92,-7l-117 0c-7,3 -79,6 -95,7 -135,13 -284,44 -410,91 -94,35 -189,77 -273,128 -74,44 -101,64 -166,110 -21,15 -49,39 -70,56 -19,15 -36,32 -53,47l-26 24c-162,156 -301,355 -386,566 -35,86 -49,131 -75,225 -14,51 -26,112 -33,167 -5,29 -8,59 -11,90 -1,13 -5,87 -7,92z"/>
   <path class="fil4" d="M1611 41c-190,9 -335,37 -508,99 -76,27 -203,85 -275,131 -79,51 -138,89 -208,148 -91,78 -175,165 -247,260 -8,10 -14,19 -22,29 -15,20 -28,39 -42,60 -184,284 -278,590 -268,949 4,165 41,357 98,508 20,50 38,98 61,143 44,86 58,113 110,194 34,52 71,98 109,145l24 28c11,11 37,43 48,52l91 88c23,23 97,80 126,102 282,210 657,324 1009,310 247,-9 456,-67 651,-160 92,-43 231,-127 311,-196 20,-17 51,-40 69,-58 8,-9 26,-23 39,-37l76 -77c8,-9 16,-17 24,-27 15,-18 30,-35 46,-55 34,-43 55,-73 85,-117 53,-78 102,-169 142,-264 181,-425 168,-922 -33,-1337 -22,-46 -45,-90 -71,-131 -22,-36 -56,-90 -81,-122 -12,-16 -32,-44 -44,-58l-35 -41c-2,-3 -3,-4 -5,-7l-55 -60c-8,-9 -17,-18 -25,-25 -9,-9 -17,-18 -26,-26l-80 -72c-4,-3 -9,-7 -14,-11l-71 -55c-54,-40 -98,-66 -154,-99l-66 -36c-31,-15 -73,-36 -104,-49 -25,-9 -48,-19 -73,-28 -191,-70 -407,-107 -612,-98z"/>
   <path class="fil5" d="M1287 3118l-49 -73c-106,-158 -220,-404 -275,-587 -44,-149 -68,-236 -95,-397 -29,-172 -43,-329 -40,-505 -7,4 -29,46 -34,54 -10,18 -20,37 -31,55 -139,248 -299,619 -308,902 0,17 0,13 13,31 7,8 12,15 19,24 14,16 26,31 40,46 4,5 6,6 10,11 17,21 65,66 87,86 4,4 6,5 11,11l24 20c63,55 130,98 201,143 17,11 37,21 55,32 36,20 77,39 115,57 39,18 82,35 123,50 25,8 113,38 134,40z"/>
   <path class="fil6" d="M2176 2333c14,-1 110,-29 130,-35 162,-45 330,-108 481,-180 98,-46 229,-122 311,-188 11,-9 56,-46 66,-58 11,-12 16,-170 16,-193 -2,-217 -54,-416 -136,-611 -9,-20 -18,-38 -27,-57 -8,-18 -49,-99 -58,-108 -4,8 -10,46 -12,57 -21,118 -67,267 -108,375 -76,196 -173,378 -286,545 -56,83 -114,162 -177,238l-113 128 -87 87z"/>
   <path class="fil7" d="M904 369c6,3 47,10 58,12 40,6 129,29 167,40 150,43 259,85 399,151 53,26 131,66 181,96 29,17 57,34 86,51 29,18 95,61 124,82 43,31 76,54 120,88 31,25 85,66 114,93l28 24c3,3 5,5 9,8 27,22 81,74 107,100 8,8 27,31 35,35 -3,-22 -27,-104 -35,-131 -12,-43 -25,-84 -39,-126 -27,-84 -57,-162 -90,-240 -60,-146 -146,-303 -239,-423 -12,-17 -25,-31 -37,-45 -25,-30 -24,-23 -56,-27 -226,-30 -502,17 -709,103 -73,30 -129,54 -197,93l-23 14c-1,0 -1,0 -1,0l-2 2z"/>
   <path class="fil8" d="M369 2425c1,-1 21,-101 23,-113 8,-37 18,-74 28,-111 60,-209 141,-397 247,-581 91,-156 224,-349 347,-482l32 -37c3,-3 5,-4 9,-8l26 -27c11,-12 21,-24 33,-35 11,-12 26,-22 36,-36 -23,4 -104,28 -132,35 -203,59 -406,137 -589,238 -18,10 -35,20 -52,30 -19,11 -34,21 -52,32 -41,25 -82,57 -119,87 -7,5 -41,35 -44,40 -4,7 -4,26 -6,36 -32,283 33,572 155,825 9,20 47,94 58,107z"/>
   <path class="fil9" d="M2424 2959l-115 -24c-189,-44 -337,-99 -511,-180 -116,-55 -247,-132 -351,-202 -27,-19 -54,-38 -81,-57 -56,-38 -121,-92 -175,-136l-64 -56c-4,-4 -7,-5 -10,-8 -32,-29 -78,-73 -105,-102l-17 -18c1,22 66,234 73,256 31,95 55,152 90,242 40,100 111,236 170,327 12,18 38,57 52,74 20,25 53,70 75,89 14,12 168,16 192,16 199,-3 373,-42 554,-112 40,-15 77,-33 115,-50 29,-14 54,-28 82,-43 4,-3 23,-12 26,-16z"/>
   <path class="fil10" d="M210 1287l75 -51c369,-240 807,-365 1246,-401 39,-3 80,-5 119,-6 21,-1 42,-1 63,-2 18,0 46,3 62,1l-110 -63c-36,-21 -75,-41 -113,-60 -78,-39 -157,-78 -240,-110 -85,-33 -167,-65 -259,-90 -90,-24 -202,-50 -301,-50 -13,0 -88,68 -97,75 -23,22 -42,43 -64,64 -8,7 -13,15 -21,22l-40 45c-86,100 -178,250 -231,372 -23,54 -54,128 -71,186 -4,16 -17,53 -18,68z"/>
   <path class="fil11" d="M1631 2500l-76 0c4,4 19,13 26,16 130,78 293,160 431,216 140,57 248,91 395,121 57,12 111,19 169,19 7,0 10,-3 14,-7 53,-43 76,-59 125,-109 37,-37 70,-73 102,-113 88,-109 150,-216 212,-348 17,-38 34,-81 49,-122 8,-22 39,-114 39,-132l-71 48c-297,191 -618,307 -971,368 -140,25 -298,43 -444,43z"/>
   <path class="fil12" d="M2500 1692l-1 83c1,-3 14,-22 16,-26l47 -83c99,-175 206,-413 259,-607 23,-89 49,-197 51,-296 1,-22 -1,-17 -11,-31l-80 -94c-7,-8 -14,-14 -21,-21l-66 -63c-11,-12 -57,-48 -71,-59 -123,-98 -297,-192 -449,-245 -24,-8 -113,-39 -133,-40l48 72c16,24 31,49 47,75 92,154 168,327 225,502 80,247 139,570 139,833z"/>
   <path class="fil3" d="M1905 1809l21 -69 26 0 30 -96 -105 0 0 -25 -99 0 -39 121 28 0c-3,18 -13,47 -22,57 -8,10 -11,12 -28,12 -13,-1 -27,0 -40,-1l50 -164 -33 0 -54 164 -97 1 52 -165 -36 0c-6,25 -18,58 -27,83 -3,9 -25,80 -29,82l-177 0 -35 107c9,2 91,1 108,1 47,0 51,2 83,-27 5,4 4,18 28,24 13,4 36,3 51,3 19,0 31,2 45,-7 19,-13 17,-25 33,-22 7,2 -2,15 22,25 34,14 76,-7 95,-37 11,-18 21,-41 28,-64 7,-21 17,-49 21,-72l87 0c-3,10 -8,23 -12,33 -9,28 -29,81 -31,105 -2,15 -2,28 10,34 11,5 28,6 41,5 23,-2 45,-29 55,-35 5,10 2,10 10,17 5,5 12,9 18,12 17,8 32,6 53,6 20,0 35,2 52,-7 19,-10 25,-25 37,-22 7,2 -2,14 23,25 12,6 73,6 88,0 52,-21 98,-68 103,-138 -43,0 -38,-3 -41,5 0,2 -1,5 -2,8 -8,25 -20,21 -37,21 -25,0 -51,0 -76,0l62 -196 -34 -1c-5,8 -6,15 -10,22 -6,8 -8,10 -21,10 -21,0 -41,0 -62,0 -52,0 -72,-9 -93,33 -14,30 -36,123 -57,131 -6,2 -53,1 -63,1z"/>
   <path class="fil3" d="M1204 1467l-205 0 3 -28 -26 0 -28 113c5,4 5,3 10,5 16,8 2,10 35,10 24,0 168,-2 179,0l-113 350 38 0 58 -177 138 0c24,0 22,3 39,-8l241 -150c24,-11 20,-15 28,-42 6,-23 15,-50 19,-73l-378 0 17 -56 -37 0 -18 56z"/>
   <path class="fil4" d="M1185 1644c26,2 167,0 206,0 19,0 15,-1 37,-15l79 -51c3,-1 5,-3 8,-5l5 -4c2,-1 2,-1 3,-2l-314 0 -24 77z"/>
   <path class="fil4" d="M2016 1809l109 -1c20,-2 37,-46 41,-68l-108 0c-24,1 -37,48 -42,69z"/>
  </g>
  <path class="fil13" d="M6085 2871l254 0 0 -93 -254 0 0 -131 276 0 50 -93 -333 0c-56,0 -101,43 -101,95l0 345c0,52 45,95 101,95l333 0 -50 -93 -276 0 0 -125z"/>
  <path id="1" class="fil13" d="M6598 2551c-56,0 -108,42 -108,94l0 444 108 0 0 -444 149 353c23,52 52,94 108,94 56,0 109,-42 109,-94l0 -444 -109 0 0 444 -149 -353c-23,-52 -52,-94 -108,-94z"/>
  <path id="2" class="fil13" d="M7246 2554c-113,0 -205,91 -205,203l0 129c0,112 93,203 206,203l146 0c56,0 102,-43 102,-95l0 -172 -109 0 0 174 -139 0c-54,0 -98,-50 -98,-110l0 -129c0,-60 43,-110 97,-110l72 0c30,0 63,15 81,38l93 -72c-37,-36 -118,-59 -174,-59l-72 0z"/>
  <polygon id="3" class="fil13" points="7593,2554 7593,3089 7701,3089 7701,2554 "/>
  <path id="4" class="fil13" d="M7913 2551c-56,0 -109,42 -109,94l0 444 108 0 0 -444 150 353c23,52 51,94 108,94 56,0 108,-42 108,-94l0 -444 -108 0 0 444 -150 -353c-22,-52 -51,-94 -107,-94z"/>
  <path id="5" class="fil13" d="M8481 2871l255 0 0 -93 -255 0 0 -131 276 0 51 -93 -333 0c-56,0 -102,43 -102,95l0 345c0,52 46,95 102,95l333 0 -51 -93 -276 0 0 -125z"/>
  <path id="6" class="fil13" d="M8994 2647l139 0c55,0 99,28 99,89l0 20c0,60 -44,89 -99,89l-74 0 -57 93 82 0 134 151 134 0 -144 -162c77,-23 132,-85 132,-171l0 -20c0,-113 -93,-182 -207,-182l-145 0c-56,0 -102,43 -102,95l0 440 108 0 0 -442z"/>
  <polygon id="7" class="fil13" points="9434,2554 9434,3089 9542,3089 9542,2554 "/>
  <path id="8" class="fil13" d="M9754 2551c-56,0 -109,42 -109,94l0 444 108 0 0 -444 150 353c22,52 51,94 107,94 56,0 109,-42 109,-94l0 -444 -108 0 0 444 -150 -353c-22,-52 -51,-94 -107,-94z"/>
  <path id="9" class="fil13" d="M10401 2554c-113,0 -205,91 -205,203l0 129c0,112 93,203 207,203l145 0c57,0 102,-43 102,-95l0 -172 -108 0 0 174 -139 0c-55,0 -99,-50 -99,-110l0 -129c0,-60 43,-110 97,-110l72 0c30,0 63,15 81,38l94 -72c-38,-36 -118,-59 -175,-59l-72 0z"/>
  <path id="10" class="fil13" d="M11306 2886c0,60 -44,110 -99,110l-139 0 0 -349 139 0c55,0 99,50 99,110l0 129zm-346 -237l0 440 247 0c114,0 207,-91 207,-203l0 -129c0,-112 -93,-203 -207,-203l-146 0c-56,0 -101,43 -101,95z"/>
  <polygon id="11" class="fil13" points="11503,2554 11503,3089 11611,3089 11611,2554 "/>
  <path id="12" class="fil13" d="M11945 2981l-149 -427 -115 0 157 448c19,53 51,94 107,94 57,0 89,-41 108,-94l157 -448 -116 0 -149 427z"/>
  <polygon id="13" class="fil13" points="12277,2554 12277,3089 12385,3089 12385,2554 "/>
  <path id="14" class="fil13" d="M12471 2707c0,179 337,137 337,229 0,33 -44,60 -98,60l-72 0c-30,0 -64,-15 -82,-38l-93 72c38,36 118,59 175,59l72 0c114,0 206,-69 206,-153 0,-180 -337,-147 -337,-229 0,-33 41,-60 91,-60l72 0c27,0 57,15 74,38l93 -72c-36,-36 -113,-59 -167,-59l-72 0c-110,0 -199,69 -199,153z"/>
  <polygon id="15" class="fil13" points="13006,2554 13006,3089 13114,3089 13114,2554 "/>
  <path id="16" class="fil13" d="M13474 3096c114,0 207,-91 207,-203l0 -143c0,-112 -93,-203 -207,-203l-72 0c-114,0 -207,91 -207,203l0 143c0,112 93,203 207,203l72 0zm-72 -93c-55,0 -99,-50 -99,-110l0 -143c0,-60 44,-110 99,-110l72 0c55,0 99,50 99,110l0 143c0,60 -44,110 -99,110l-72 0z"/>
  <path id="17" class="fil13" d="M13875 2551c-56,0 -108,42 -108,94l0 444 108 0 0 -444 149 353c23,52 52,94 108,94 56,0 109,-42 109,-94l0 -444 -108 0 0 444 -150 -353c-23,-52 -51,-94 -108,-94z"/>
 </g>
</svg>
